<svg width="22" height="17" viewBox="0 0 22 17" fill="none" xmlns="http://www.w3.org/2000/svg">
<path d="M7.625 7.75H5V5.5H7.625C7.92337 5.5 8.20952 5.61853 8.4205 5.8295C8.63147 6.04048 8.75 6.32663 8.75 6.625C8.75 6.92337 8.63147 7.20952 8.4205 7.4205C8.20952 7.63147 7.92337 7.75 7.625 7.75ZM8 9.25H5V12.25H8C8.39782 12.25 8.77936 12.092 9.06066 11.8107C9.34196 11.5294 9.5 11.1478 9.5 10.75C9.5 10.3522 9.34196 9.97064 9.06066 9.68934C8.77936 9.40804 8.39782 9.25 8 9.25ZM15.5 7.75C15.0348 7.75014 14.5811 7.89446 14.2014 8.16308C13.8216 8.43171 13.5344 8.81143 13.3794 9.25H17.6206C17.4656 8.81143 17.1784 8.43171 16.7986 8.16308C16.4189 7.89446 15.9652 7.75014 15.5 7.75ZM21.5 1.75V15.25C21.5 15.6478 21.342 16.0294 21.0607 16.3107C20.7794 16.592 20.3978 16.75 20 16.75H2C1.60218 16.75 1.22064 16.592 0.93934 16.3107C0.658035 16.0294 0.5 15.6478 0.5 15.25V1.75C0.5 1.35218 0.658035 0.970644 0.93934 0.68934C1.22064 0.408035 1.60218 0.25 2 0.25H20C20.3978 0.25 20.7794 0.408035 21.0607 0.68934C21.342 0.970644 21.5 1.35218 21.5 1.75ZM12.5 4.75C12.5 4.94891 12.579 5.13968 12.7197 5.28033C12.8603 5.42098 13.0511 5.5 13.25 5.5H17.75C17.9489 5.5 18.1397 5.42098 18.2803 5.28033C18.421 5.13968 18.5 4.94891 18.5 4.75C18.5 4.55109 18.421 4.36032 18.2803 4.21967C18.1397 4.07902 17.9489 4 17.75 4H13.25C13.0511 4 12.8603 4.07902 12.7197 4.21967C12.579 4.36032 12.5 4.55109 12.5 4.75ZM11 10.75C10.9998 10.2586 10.8788 9.77487 10.6479 9.34119C10.4169 8.90751 10.0829 8.5372 9.67531 8.26281C9.98363 7.87664 10.1767 7.41129 10.2323 6.92027C10.2878 6.42926 10.2037 5.93252 9.98952 5.4872C9.77533 5.04188 9.4398 4.66607 9.0215 4.40297C8.60321 4.13988 8.11915 4.0002 7.625 4H4.25C4.05109 4 3.86032 4.07902 3.71967 4.21967C3.57902 4.36032 3.5 4.55109 3.5 4.75V13C3.5 13.1989 3.57902 13.3897 3.71967 13.5303C3.86032 13.671 4.05109 13.75 4.25 13.75H8C8.79565 13.75 9.55871 13.4339 10.1213 12.8713C10.6839 12.3087 11 11.5456 11 10.75ZM19.25 10C19.25 9.1425 18.956 8.31091 18.4172 7.64384C17.8784 6.97677 17.1272 6.51452 16.2889 6.33412C15.4506 6.15373 14.5758 6.26609 13.8102 6.65249C13.0447 7.03888 12.4348 7.67596 12.082 8.45755C11.7292 9.23913 11.655 10.118 11.8717 10.9477C12.0883 11.7774 12.5828 12.5077 13.2727 13.0171C13.9625 13.5264 14.8061 13.7839 15.6628 13.7467C16.5195 13.7094 17.3375 13.3797 17.9806 12.8125C18.1298 12.6808 18.2206 12.4953 18.233 12.2967C18.2454 12.0982 18.1784 11.9028 18.0467 11.7536C17.9815 11.6797 17.9024 11.6194 17.8139 11.5761C17.7254 11.5328 17.6293 11.5074 17.531 11.5012C17.3324 11.4888 17.137 11.5558 16.9878 11.6875C16.7117 11.9308 16.3801 12.1026 16.0222 12.1879C15.6642 12.2733 15.2908 12.2695 14.9346 12.177C14.5785 12.0844 14.2505 11.9059 13.9793 11.6572C13.7082 11.4084 13.5022 11.0969 13.3794 10.75H18.5C18.6989 10.75 18.8897 10.671 19.0303 10.5303C19.171 10.3897 19.25 10.1989 19.25 10Z" fill="white"/>
</svg>
