<svg width="18" height="22" viewBox="0 0 18 22" fill="none" xmlns="http://www.w3.org/2000/svg">
<path d="M16.7608 2.67896L4.54987 0.522706C4.15814 0.453772 3.75508 0.543241 3.42931 0.771439C3.10354 0.999636 2.88174 1.34788 2.81268 1.73958L0.0236199 17.5833C-0.010493 17.7774 -0.00602409 17.9763 0.0367713 18.1687C0.0795666 18.3611 0.159849 18.5431 0.273032 18.7045C0.386215 18.8658 0.530079 19.0032 0.696402 19.1089C0.862726 19.2146 1.04825 19.2865 1.24237 19.3205L13.4533 21.4768C13.6475 21.511 13.8465 21.5067 14.039 21.4639C14.2314 21.4212 14.4136 21.3409 14.575 21.2277C14.7365 21.1145 14.874 20.9706 14.9798 20.8042C15.0855 20.6378 15.1575 20.4522 15.1914 20.258L17.9805 4.41427C18.0488 4.02242 17.9587 3.61947 17.73 3.29405C17.5013 2.96863 17.1526 2.74738 16.7608 2.67896ZM9.70331 11.333C9.6727 11.5065 9.58198 11.6637 9.44707 11.777C9.31217 11.8903 9.14167 11.9525 8.9655 11.9527C8.9215 11.9527 8.8776 11.9489 8.83425 11.9415L4.94362 11.2543C4.75872 11.2088 4.59804 11.0947 4.49417 10.9351C4.3903 10.7755 4.35102 10.5824 4.38429 10.3949C4.41757 10.2074 4.52091 10.0396 4.67335 9.92553C4.82579 9.81143 5.01592 9.75959 5.20518 9.78052L9.09393 10.464C9.19104 10.4809 9.28385 10.5169 9.36704 10.5698C9.45024 10.6227 9.52219 10.6914 9.57879 10.7722C9.63539 10.8529 9.67552 10.944 9.69688 11.0402C9.71825 11.1364 9.72043 11.2359 9.70331 11.333ZM14.1096 9.06614C14.079 9.23948 13.9884 9.39655 13.8537 9.50984C13.719 9.62313 13.5487 9.68543 13.3727 9.68583C13.3283 9.68592 13.2841 9.68184 13.2405 9.67364L5.45925 8.30021C5.26332 8.26552 5.08919 8.15442 4.97517 7.99135C4.86116 7.82829 4.81659 7.6266 4.85128 7.43067C4.88596 7.23475 4.99706 7.06062 5.16013 6.9466C5.3232 6.83259 5.52488 6.78802 5.72081 6.82271L13.5021 8.19708C13.5992 8.21396 13.6922 8.24984 13.7755 8.30268C13.8588 8.35552 13.9308 8.42427 13.9875 8.50499C14.0442 8.58572 14.0844 8.67684 14.1058 8.77313C14.1273 8.86942 14.1295 8.96899 14.1124 9.06614H14.1096ZM14.6299 6.11114C14.5993 6.28464 14.5085 6.44183 14.3736 6.55514C14.2387 6.66845 14.0682 6.73065 13.8921 6.73083C13.8481 6.73077 13.8042 6.72701 13.7608 6.71958L5.97956 5.34521C5.88033 5.3306 5.78504 5.29625 5.69933 5.24417C5.61361 5.19209 5.53921 5.12335 5.48053 5.04201C5.42185 4.96067 5.38008 4.86839 5.35769 4.77063C5.3353 4.67286 5.33275 4.5716 5.35018 4.47283C5.36761 4.37406 5.40468 4.2798 5.45919 4.1956C5.51369 4.11141 5.58453 4.03901 5.66751 3.98268C5.75049 3.92634 5.84393 3.88723 5.94229 3.86764C6.04066 3.84805 6.14195 3.84839 6.24018 3.86864L14.0214 5.24208C14.1187 5.25885 14.2117 5.29465 14.2951 5.34744C14.3785 5.40023 14.4507 5.46897 14.5075 5.54971C14.5643 5.63045 14.6046 5.7216 14.626 5.81795C14.6475 5.91429 14.6498 6.01393 14.6327 6.11114H14.6299Z" fill="white"/>
</svg>
