<svg width="20" height="21" viewBox="0 0 20 21" fill="none" xmlns="http://www.w3.org/2000/svg">
<path d="M19.75 10.4989C19.7469 12.8818 18.8726 15.1814 17.2917 16.9645C15.7109 18.7475 13.5326 19.891 11.1671 20.1795C11.1145 20.1855 11.0611 20.1802 11.0107 20.164C10.9602 20.1479 10.9137 20.1212 10.8743 20.0858C10.8348 20.0503 10.8034 20.0069 10.782 19.9585C10.7605 19.91 10.7496 19.8575 10.75 19.8045V12.7489H13C13.1028 12.7491 13.2045 12.7282 13.2989 12.6874C13.3933 12.6467 13.4783 12.5869 13.5487 12.5119C13.619 12.4369 13.6732 12.3483 13.7078 12.2515C13.7424 12.1547 13.7568 12.0518 13.75 11.9492C13.7334 11.7563 13.6444 11.5769 13.5009 11.447C13.3574 11.317 13.1701 11.2463 12.9765 11.2489H10.75V8.99888C10.75 8.60105 10.908 8.21952 11.1893 7.93822C11.4706 7.65691 11.8521 7.49888 12.25 7.49888H13.75C13.8528 7.4991 13.9545 7.47819 14.0489 7.43743C14.1433 7.39667 14.2283 7.33694 14.2987 7.26194C14.369 7.18695 14.4232 7.09829 14.4578 7.00148C14.4924 6.90468 14.5068 6.80178 14.5 6.69919C14.4834 6.506 14.3941 6.3263 14.2502 6.19632C14.1063 6.06635 13.9185 5.99579 13.7246 5.99888H12.25C11.4543 5.99888 10.6912 6.31495 10.1286 6.87756C9.56603 7.44017 9.24996 8.20323 9.24996 8.99888V11.2489H6.99996C6.89714 11.2487 6.79538 11.2696 6.70099 11.3103C6.60659 11.3511 6.52159 11.4108 6.45126 11.4858C6.38092 11.5608 6.32676 11.6495 6.29213 11.7463C6.2575 11.8431 6.24315 11.946 6.24996 12.0486C6.26655 12.2418 6.35579 12.4215 6.49968 12.5514C6.64357 12.6814 6.8314 12.752 7.02527 12.7489H9.24996V19.8064C9.25028 19.8593 9.2394 19.9117 9.21803 19.9601C9.19666 20.0085 9.16528 20.0518 9.12597 20.0873C9.08665 20.1227 9.04028 20.1494 8.98991 20.1656C8.93954 20.1818 8.8863 20.1872 8.83371 20.1814C6.40498 19.8856 4.1758 18.6888 2.5874 16.8278C0.999005 14.9668 0.167161 12.5774 0.25652 10.1323C0.44402 5.06981 4.54464 0.95419 9.6109 0.757315C10.9225 0.706508 12.231 0.920769 13.4579 1.38728C14.6848 1.85379 15.8051 2.56298 16.7516 3.47241C17.6981 4.38183 18.4515 5.47283 18.9667 6.68013C19.4819 7.88744 19.7483 9.18625 19.75 10.4989Z" fill="white"/>
</svg>
