<svg width="24" height="23" viewBox="0 0 24 23" fill="none" xmlns="http://www.w3.org/2000/svg">
<path d="M13.1662 16.6123V8.91547C13.1674 7.80237 13.6101 6.7352 14.3971 5.94812C15.1842 5.16105 16.2514 4.71836 17.3645 4.7172C17.5501 4.7172 17.728 4.79092 17.8592 4.92214C17.9905 5.05336 18.0642 5.23134 18.0642 5.41691C18.0642 5.60249 17.9905 5.78046 17.8592 5.91168C17.728 6.0429 17.5501 6.11662 17.3645 6.11662C16.6222 6.11662 15.9103 6.4115 15.3854 6.93639C14.8605 7.46127 14.5656 8.17317 14.5656 8.91547V9.61518H19.8135C20.1846 9.61518 20.5406 9.76262 20.803 10.0251C21.0655 10.2875 21.2129 10.6435 21.2129 11.0146V16.6123C21.2129 16.9834 21.0655 17.3394 20.803 17.6018C20.5406 17.8643 20.1846 18.0117 19.8135 18.0117H14.5656C14.1945 18.0117 13.8385 17.8643 13.5761 17.6018C13.3136 17.3394 13.1662 16.9834 13.1662 16.6123ZM4.41982 18.0117H9.66765C10.0388 18.0117 10.3947 17.8643 10.6572 17.6018C10.9196 17.3394 11.0671 16.9834 11.0671 16.6123V11.0146C11.0671 10.6435 10.9196 10.2875 10.6572 10.0251C10.3947 9.76262 10.0388 9.61518 9.66765 9.61518H4.41982V8.91547C4.41982 8.17317 4.71469 7.46127 5.23958 6.93639C5.76446 6.4115 6.47636 6.11662 7.21866 6.11662C7.40424 6.11662 7.58221 6.0429 7.71343 5.91168C7.84465 5.78046 7.91837 5.60249 7.91837 5.41691C7.91837 5.23134 7.84465 5.05336 7.71343 4.92214C7.58221 4.79092 7.40424 4.7172 7.21866 4.7172C6.10557 4.71836 5.03839 5.16105 4.25131 5.94812C3.46424 6.7352 3.02155 7.80237 3.02039 8.91547V16.6123C3.02039 16.9834 3.16783 17.3394 3.43027 17.6018C3.69272 17.8643 4.04866 18.0117 4.41982 18.0117Z" fill="white"/>
</svg>
