<svg width="18" height="19" viewBox="0 0 18 19" fill="none" xmlns="http://www.w3.org/2000/svg">
<path d="M17.1561 18.1109C17.0915 18.2286 16.9966 18.3267 16.8812 18.3951C16.7657 18.4636 16.6341 18.4998 16.4999 18.5H11.9999C11.8736 18.5 11.7495 18.4681 11.6389 18.4073C11.5282 18.3465 11.4348 18.2587 11.3671 18.1522L7.57113 12.1869L2.05488 18.2544C1.9204 18.3988 1.73442 18.4845 1.53723 18.4927C1.34005 18.5009 1.14757 18.4311 1.00151 18.2984C0.85546 18.1657 0.767609 17.9807 0.757007 17.7836C0.746405 17.5866 0.813907 17.3933 0.944877 17.2456L6.73581 10.8706L0.867064 1.65313C0.794784 1.53973 0.754322 1.40898 0.749915 1.27458C0.745507 1.14018 0.777316 1.00707 0.842011 0.889177C0.906707 0.771288 1.00191 0.672962 1.11765 0.604494C1.23338 0.536026 1.3654 0.499935 1.49988 0.5H5.99988C6.1261 0.500039 6.25028 0.531936 6.3609 0.592735C6.47152 0.653535 6.565 0.74127 6.63269 0.847813L10.4286 6.81312L15.9449 0.745625C16.0793 0.601174 16.2653 0.515547 16.4625 0.507309C16.6597 0.49907 16.8522 0.568884 16.9982 0.701615C17.1443 0.834346 17.2321 1.01929 17.2427 1.21636C17.2533 1.41343 17.1858 1.60674 17.0549 1.75438L11.2639 8.12469L17.1327 17.3478C17.2046 17.4613 17.2447 17.5919 17.2488 17.7262C17.2529 17.8604 17.2209 17.9933 17.1561 18.1109Z" fill="white"/>
</svg>
